<svg xmlns="http://www.w3.org/2000/svg" data-name="Слой 1" viewBox="0 0 93.06 81.125" x="0px" y="0px"><title>Образование 3</title><path d="M23.93,76.72a22.32,22.32,0,0,0-4.24-2.82c-1.56-.78-1.61-1.41-.56-2.8s2.05-2.79,3-4.25c3.86-6.06,8-11.93,12-17.87,2.23-3.29,4.4-6.62,6.34-10.09A24.17,24.17,0,0,1,43,35.27C44.09,34,44.53,34,45.88,35a22.31,22.31,0,0,0,4.58,3c0-1.79.08-3.36.1-4.92a15.25,15.25,0,0,1,.31-3.44c.47-1.87,1-2.34,2.91-2.35,3.33,0,6.66,0,10,0,.38,0,.77,0,1.15,0,.74,0,1.07-.34,1.08-1s0-1.15-.06-1.73a13.51,13.51,0,0,1,0-2.11,2.08,2.08,0,0,1,2.32-2c1.43.05,2.8-.35,4.21-.36.89,0,1.25-.43,1.28-1.31s.18-1.91.26-2.87a2,2,0,0,1,1.61-1.9,7.34,7.34,0,0,1,4-.2,15.54,15.54,0,0,0,5.35.21,23.25,23.25,0,0,1,2.5-.12c1.71,0,2.26.5,2.63,2.18a7.23,7.23,0,0,1,.17,1.91C89.89,23.93,90.09,30,90,36c-.06,5.39-.35,10.77-.45,16.16-.11,6.28-.9,12.54-.71,18.84,0,1,0,2.05,0,3.07,0,.8.36,1.19,1.16,1.15L93.9,75c.26,0,.51-.08.77-.08.93,0,1.42.37,1.43,1.13,0,.94-.67,1-1.33,1-2-.05-4.1-.1-6.16,0-10.83.27-21.66.45-32.49.77-6.22.18-12.45,0-18.65.38s-12.43.41-18.65.18c-2.05-.08-4.1-.22-6.14-.48A33.25,33.25,0,0,0,5,77.9a2.55,2.55,0,0,1-1.52-.11A.83.83,0,0,1,3,77a.65.65,0,0,1,.58-.66,11.09,11.09,0,0,1,1.72-.22c2.69,0,5.37-.14,8.07.07C16.91,76.47,20.44,76.31,23.93,76.72ZM75.39,51.8c-.21,9.31-.38,15.91-.22,22.52,0,1.62.11,1.65,1.78,1.72,3,.12,6-.37,9-.49,1,0,1.15-.56,1.13-1.39,0-2.74.4-5.47.3-8.23-.08-2.3,0-4.6.08-6.91a106.45,106.45,0,0,1,.64-11.71c.46-3.5.52-7,.63-10.54.1-3.2,0-6.4-.15-9.6-.12-3.4.25-6.8,0-10.19-.11-1.46-.11-1.48-1.56-1.49A50.42,50.42,0,0,1,78.78,15a8,8,0,0,0-2.29.07,1.44,1.44,0,0,0-1.37,1.53c0,.45-.05.9-.05,1.35,0,4.61,0,9.22,0,13.84C75.17,39.39,75.31,47,75.39,51.8Zm-10-5.37.33-15.77c0-1.86,0-1.92-1.9-2.05s-3.82.12-5.74-.05a27.12,27.12,0,0,0-4,.07c-1.4.09-1.79.44-2,1.83a15,15,0,0,0-.25,2.68c0,6.28,0,12.57,0,18.85,0,7.89.72,15.76.49,23.64,0,.88.38,1,1,1,1.6,0,3.2,0,4.8-.06s3.21-.07,4.81-.18c2.12-.13,2.13-.16,2.17-2.2s.12-4.37.08-6.55C65.09,60.54,65.14,53.48,65.41,46.43Zm-15-4.1c-2,1.91-21.46,32.45-22,34.56a7.32,7.32,0,0,0,2.46.22q9.23-.24,18.44-.52c1.46,0,1.58-.11,1.61-1.52.07-4.29.28-8.58.08-12.88-.19-4.09-.51-8.18-.31-12.28.11-2.18,0-4.36,0-6.54C50.71,43,50.81,42.59,50.4,42.33Zm16.16,6.75h0c-.1,4.55-.21,9.1-.29,13.65-.06,4-.1,8.08,0,12.12,0,1,.36,1.41,1.35,1.37s2.18,0,3.27,0c2.92,0,2.88,0,3-3,.18-4.17-.07-8.33,0-12.5,0-3.66.31-7.31.19-11-.16-4.81-.37-9.62-.32-14.42,0-4,0-8,0-11.93,0-.32,0-.64,0-1a1,1,0,0,0-1.13-1,29.75,29.75,0,0,0-3.26.22c-2.17.42-2.21.4-2.29,2.65-.06,1.8-.14,3.6-.18,5.39Q66.76,39.37,66.56,49.08ZM20.24,72.33a24.13,24.13,0,0,0,4.94,3.29c1.61.85,1.65.88,2.48-.59,1-1.73,2.07-3.39,3.14-5,2.57-4,5-8,7.61-12,3.47-5.38,7.19-10.6,10.5-16.08.3-.49.59-1,.88-1.49a1,1,0,0,0-.38-1.47c-.81-.52-1.66-1-2.44-1.54-2.77-2-2.77-2-4.55,1-4.22,7-8.89,13.76-13.55,20.5C25.85,63.21,22.92,67.63,20.24,72.33Z" transform="translate(-3.04 -13.54)"/><path d="M87.5,22.92c0,3.57-.36,4-3.9,4.08-1.46.05-2.93.23-4.39.25-1.94,0-2.42-.35-2.58-2.27a36,36,0,0,1,0-5c.06-1.13.53-1.51,1.62-1.38a17.49,17.49,0,0,0,4.95-.35c3.61-.63,4-.32,4.22,3.31C87.46,22,87.48,22.47,87.5,22.92Zm-6.18-1.86a3.54,3.54,0,0,0-1.6,1.87,2.68,2.68,0,0,0-1.29,1.85A3.44,3.44,0,0,0,79.77,23a3.9,3.9,0,0,0,1.58-1.89c.43-.23.69-.6,1-1.44C81.76,20.27,81.4,20.55,81.32,21.06Zm4.05-1.42a.77.77,0,0,0-1.15.09,28.39,28.39,0,0,0-4.55,5.4c-.17.26-.38.6,0,.81a.67.67,0,0,0,.84-.29Q82.95,22.65,85.37,19.64Zm-1.31,5.9c1.9,0,2-.05,2.11-1.5.06-.82,0-1.65,0-2.48,0-.27-.12-.54-.45-.4s-.46.46-.3.61c.9.85.08,1.52-.22,2.2A9.4,9.4,0,0,1,84.06,25.54ZM81.5,26c.82,0,1.47.29,1.68-.5a4.52,4.52,0,0,1,.76-1.5,1.75,1.75,0,0,0,.51-1.3A9.79,9.79,0,0,0,81.5,26Zm-2.64-4.26c.12,0,.29,0,.33-.07.12-.22.72-.37.28-.66C79.27,20.87,78.86,21.29,78.86,21.73Z" transform="translate(-3.04 -13.54)"/><path d="M84.91,29.27c.39,0,.66,0,.77.31a.58.58,0,0,1-.37.77,4,4,0,0,1-1.29.36c-1.92.07-3.84.1-5.75.13a3.17,3.17,0,0,1-.76-.12c-.32-.08-.64-.2-.54-.63s.34-.37.59-.38c.83,0,1.67-.07,2.5-.07A23.92,23.92,0,0,0,84.91,29.27Z" transform="translate(-3.04 -13.54)"/><path d="M52.83,37.36c0-1.15-.09-2.3-.07-3.45,0-1.31.34-1.71,1.62-2,2.63-.55,5.33-.47,8-.76a1.41,1.41,0,0,1,1.57,1.36,19.48,19.48,0,0,1-.24,7.22c-.26,1.21-1.37,1.49-2.37,1.63-1.51.2-3,.23-4.58.31a14.61,14.61,0,0,0-2.46.29c-1.25.28-1.4.08-1.39-1.17s0-2.3-.07-3.44Zm4.49,2.83A9.78,9.78,0,0,0,61.18,40a1.57,1.57,0,0,0,1.39-1.56c.19-1.61-.14-3.19-.09-4.79,0-.71-.38-1-1.08-1a48.91,48.91,0,0,0-5.92.51c-1,.15-1.26.73-1.24,1.61s0,1.79.09,2.68-.39,1.79.11,2.43,1.69.14,2.54.3Z" transform="translate(-3.04 -13.54)"/><path d="M62.22,43.13c.12,0,.44,0,.75.09a.56.56,0,0,1,.51.49.5.5,0,0,1-.45.53,7.84,7.84,0,0,1-1.51.21,34.76,34.76,0,0,0-6.27.67,4.32,4.32,0,0,1-1,0,.59.59,0,0,1-.56-.45.56.56,0,0,1,.49-.69c.75-.14,1.51-.26,2.27-.34C58.34,43.49,60.18,43.33,62.22,43.13Z" transform="translate(-3.04 -13.54)"/><path d="M48.34,41.44c-.07,1.18-.89,1.79-1.44,2.55-.78,1.07-1.65.62-2.51.08a3.65,3.65,0,0,0-.35-.14c-3.22-1.74-3-2.52-.77-5.16a1,1,0,0,1,1.2-.36,14.56,14.56,0,0,1,3.62,2.46C48.25,41,48.29,41.31,48.34,41.44ZM44.47,40c-.64.14-.95.8-1.16,1.44s1.28,1.86,2.13,1.85,1.1-.8,1.32-1.43S45.51,40,44.47,40Z" transform="translate(-3.04 -13.54)"/><text x="0" y="79.9" fill="#000000" font-size="5px" font-weight="bold" font-family="'Helvetica Neue', Helvetica, Arial-Unicode, Arial, Sans-serif">Created by Maria Zamchy</text><text x="0" y="84.9" fill="#000000" font-size="5px" font-weight="bold" font-family="'Helvetica Neue', Helvetica, Arial-Unicode, Arial, Sans-serif">from the Noun Project</text></svg>